<?xml version="1.0" encoding="UTF-8" standalone="no"?>
<!DOCTYPE svg PUBLIC "-//W3C//DTD SVG 1.1//EN"
 "http://www.w3.org/Graphics/SVG/1.1/DTD/svg11.dtd">
<!-- Generated by graphviz version 9.0.0 (20230911.1827)
 -->
<!-- Pages: 1 -->
<svg width="671pt" height="548pt"
 viewBox="0.00 0.00 670.50 548.00" xmlns="http://www.w3.org/2000/svg" xmlns:xlink="http://www.w3.org/1999/xlink">
<g id="graph0" class="graph" transform="scale(1 1) rotate(0) translate(4 544)">
<polygon fill="white" stroke="none" points="-4,4 -4,-544 666.5,-544 666.5,4 -4,4"/>
<!-- [root] oci_core_instance.linux9 (expand) -->
<g id="node1" class="node">
<title>[root] oci_core_instance.linux9 (expand)</title>
<polygon fill="none" stroke="black" points="521.6,-396 369.85,-396 369.85,-360 521.6,-360 521.6,-396"/>
<text text-anchor="middle" x="445.72" y="-372.95" font-family="Times,serif" font-size="14.00">oci_core_instance.linux9</text>
</g>
<!-- [root] oci_core_subnet.test_subnet (expand) -->
<g id="node2" class="node">
<title>[root] oci_core_subnet.test_subnet (expand)</title>
<polygon fill="none" stroke="black" points="524.22,-324 355.22,-324 355.22,-288 524.22,-288 524.22,-324"/>
<text text-anchor="middle" x="439.72" y="-300.95" font-family="Times,serif" font-size="14.00">oci_core_subnet.test_subnet</text>
</g>
<!-- [root] oci_core_instance.linux9 (expand)&#45;&gt;[root] oci_core_subnet.test_subnet (expand) -->
<g id="edge1" class="edge">
<title>[root] oci_core_instance.linux9 (expand)&#45;&gt;[root] oci_core_subnet.test_subnet (expand)</title>
<path fill="none" stroke="black" d="M444.24,-359.7C443.61,-352.41 442.87,-343.73 442.17,-335.54"/>
<polygon fill="black" stroke="black" points="445.66,-335.28 441.32,-325.61 438.68,-335.87 445.66,-335.28"/>
</g>
<!-- [root] oci_core_vcn.test_vcn (expand) -->
<g id="node3" class="node">
<title>[root] oci_core_vcn.test_vcn (expand)</title>
<polygon fill="none" stroke="black" points="502.47,-252 364.97,-252 364.97,-216 502.47,-216 502.47,-252"/>
<text text-anchor="middle" x="433.72" y="-228.95" font-family="Times,serif" font-size="14.00">oci_core_vcn.test_vcn</text>
</g>
<!-- [root] oci_core_subnet.test_subnet (expand)&#45;&gt;[root] oci_core_vcn.test_vcn (expand) -->
<g id="edge2" class="edge">
<title>[root] oci_core_subnet.test_subnet (expand)&#45;&gt;[root] oci_core_vcn.test_vcn (expand)</title>
<path fill="none" stroke="black" d="M438.24,-287.7C437.61,-280.41 436.87,-271.73 436.17,-263.54"/>
<polygon fill="black" stroke="black" points="439.66,-263.28 435.32,-253.61 432.68,-263.87 439.66,-263.28"/>
</g>
<!-- [root] oci_identity_compartment.VJ_P (expand) -->
<g id="node4" class="node">
<title>[root] oci_identity_compartment.VJ_P (expand)</title>
<polygon fill="none" stroke="black" points="343.22,-180 150.22,-180 150.22,-144 343.22,-144 343.22,-180"/>
<text text-anchor="middle" x="246.72" y="-156.95" font-family="Times,serif" font-size="14.00">oci_identity_compartment.VJ_P</text>
</g>
<!-- [root] oci_core_vcn.test_vcn (expand)&#45;&gt;[root] oci_identity_compartment.VJ_P (expand) -->
<g id="edge3" class="edge">
<title>[root] oci_core_vcn.test_vcn (expand)&#45;&gt;[root] oci_identity_compartment.VJ_P (expand)</title>
<path fill="none" stroke="black" d="M387.02,-215.52C361.82,-206.08 330.51,-194.37 303.87,-184.39"/>
<polygon fill="black" stroke="black" points="305.16,-181.14 294.57,-180.91 302.71,-187.7 305.16,-181.14"/>
</g>
<!-- [root] var.vcn_cidr_block -->
<g id="node8" class="node">
<title>[root] var.vcn_cidr_block</title>
<polygon fill="none" stroke="black" points="487.85,-180 373.6,-180 373.6,-144 493.85,-144 493.85,-174 487.85,-180"/>
<polyline fill="none" stroke="black" points="487.85,-180 487.85,-174"/>
<polyline fill="none" stroke="black" points="493.85,-174 487.85,-174"/>
<text text-anchor="middle" x="433.72" y="-156.95" font-family="Times,serif" font-size="14.00">var.vcn_cidr_block</text>
</g>
<!-- [root] oci_core_vcn.test_vcn (expand)&#45;&gt;[root] var.vcn_cidr_block -->
<g id="edge4" class="edge">
<title>[root] oci_core_vcn.test_vcn (expand)&#45;&gt;[root] var.vcn_cidr_block</title>
<path fill="none" stroke="black" d="M433.72,-215.7C433.72,-208.41 433.72,-199.73 433.72,-191.54"/>
<polygon fill="black" stroke="black" points="437.22,-191.62 433.72,-181.62 430.22,-191.62 437.22,-191.62"/>
</g>
<!-- [root] provider[&quot;registry.terraform.io/oracle/oci&quot;] -->
<g id="node5" class="node">
<title>[root] provider[&quot;registry.terraform.io/oracle/oci&quot;]</title>
<polygon fill="none" stroke="black" points="246.72,-108 5.45,-90 246.72,-72 487.99,-90 246.72,-108"/>
<text text-anchor="middle" x="246.72" y="-84.95" font-family="Times,serif" font-size="14.00">provider[&quot;registry.terraform.io/oracle/oci&quot;]</text>
</g>
<!-- [root] oci_identity_compartment.VJ_P (expand)&#45;&gt;[root] provider[&quot;registry.terraform.io/oracle/oci&quot;] -->
<g id="edge5" class="edge">
<title>[root] oci_identity_compartment.VJ_P (expand)&#45;&gt;[root] provider[&quot;registry.terraform.io/oracle/oci&quot;]</title>
<path fill="none" stroke="black" d="M246.72,-143.7C246.72,-136.41 246.72,-127.73 246.72,-119.54"/>
<polygon fill="black" stroke="black" points="250.22,-119.62 246.72,-109.62 243.22,-119.62 250.22,-119.62"/>
</g>
<!-- [root] var.private_key_path -->
<g id="node6" class="node">
<title>[root] var.private_key_path</title>
<polygon fill="none" stroke="black" points="305.72,-36 181.72,-36 181.72,0 311.72,0 311.72,-30 305.72,-36"/>
<polyline fill="none" stroke="black" points="305.72,-36 305.72,-30"/>
<polyline fill="none" stroke="black" points="311.72,-30 305.72,-30"/>
<text text-anchor="middle" x="246.72" y="-12.95" font-family="Times,serif" font-size="14.00">var.private_key_path</text>
</g>
<!-- [root] provider[&quot;registry.terraform.io/oracle/oci&quot;]&#45;&gt;[root] var.private_key_path -->
<g id="edge8" class="edge">
<title>[root] provider[&quot;registry.terraform.io/oracle/oci&quot;]&#45;&gt;[root] var.private_key_path</title>
<path fill="none" stroke="black" d="M246.72,-71.7C246.72,-64.41 246.72,-55.73 246.72,-47.54"/>
<polygon fill="black" stroke="black" points="250.22,-47.62 246.72,-37.62 243.22,-47.62 250.22,-47.62"/>
</g>
<!-- [root] var.public_key -->
<g id="node7" class="node">
<title>[root] var.public_key</title>
<polygon fill="none" stroke="black" points="146.85,-468 56.6,-468 56.6,-432 152.85,-432 152.85,-462 146.85,-468"/>
<polyline fill="none" stroke="black" points="146.85,-468 146.85,-462"/>
<polyline fill="none" stroke="black" points="152.85,-462 146.85,-462"/>
<text text-anchor="middle" x="104.72" y="-444.95" font-family="Times,serif" font-size="14.00">var.public_key</text>
</g>
<!-- [root] output.compartment&#45;OCID1 (expand) -->
<g id="node9" class="node">
<title>[root] output.compartment&#45;OCID1 (expand)</title>
<ellipse fill="none" stroke="black" cx="175.72" cy="-378" rx="175.72" ry="18"/>
<text text-anchor="middle" x="175.72" y="-372.95" font-family="Times,serif" font-size="14.00">[root] output.compartment&#45;OCID1 (expand)</text>
</g>
<!-- [root] output.compartment&#45;OCID1 (expand)&#45;&gt;[root] oci_identity_compartment.VJ_P (expand) -->
<g id="edge6" class="edge">
<title>[root] output.compartment&#45;OCID1 (expand)&#45;&gt;[root] oci_identity_compartment.VJ_P (expand)</title>
<path fill="none" stroke="black" d="M181.41,-359.85C193.64,-322.99 222.53,-235.92 237.45,-190.96"/>
<polygon fill="black" stroke="black" points="240.7,-192.26 240.53,-181.67 234.06,-190.06 240.7,-192.26"/>
</g>
<!-- [root] provider[&quot;registry.terraform.io/oracle/oci&quot;] (close) -->
<g id="node10" class="node">
<title>[root] provider[&quot;registry.terraform.io/oracle/oci&quot;] (close)</title>
<ellipse fill="none" stroke="black" cx="440.72" cy="-450" rx="221.78" ry="18"/>
<text text-anchor="middle" x="440.72" y="-444.95" font-family="Times,serif" font-size="14.00">[root] provider[&quot;registry.terraform.io/oracle/oci&quot;] (close)</text>
</g>
<!-- [root] provider[&quot;registry.terraform.io/oracle/oci&quot;] (close)&#45;&gt;[root] oci_core_instance.linux9 (expand) -->
<g id="edge7" class="edge">
<title>[root] provider[&quot;registry.terraform.io/oracle/oci&quot;] (close)&#45;&gt;[root] oci_core_instance.linux9 (expand)</title>
<path fill="none" stroke="black" d="M441.96,-431.7C442.48,-424.41 443.1,-415.73 443.68,-407.54"/>
<polygon fill="black" stroke="black" points="447.17,-407.84 444.39,-397.61 440.19,-407.34 447.17,-407.84"/>
</g>
<!-- [root] root -->
<g id="node11" class="node">
<title>[root] root</title>
<ellipse fill="none" stroke="black" cx="180.72" cy="-522" rx="49.3" ry="18"/>
<text text-anchor="middle" x="180.72" y="-516.95" font-family="Times,serif" font-size="14.00">[root] root</text>
</g>
<!-- [root] root&#45;&gt;[root] var.public_key -->
<g id="edge11" class="edge">
<title>[root] root&#45;&gt;[root] var.public_key</title>
<path fill="none" stroke="black" d="M163.09,-504.76C153.84,-496.25 142.31,-485.62 131.94,-476.07"/>
<polygon fill="black" stroke="black" points="134.42,-473.6 124.69,-469.4 129.68,-478.75 134.42,-473.6"/>
</g>
<!-- [root] root&#45;&gt;[root] output.compartment&#45;OCID1 (expand) -->
<g id="edge9" class="edge">
<title>[root] root&#45;&gt;[root] output.compartment&#45;OCID1 (expand)</title>
<path fill="none" stroke="black" d="M180.11,-503.59C179.26,-479.61 177.73,-436.14 176.72,-407.42"/>
<polygon fill="black" stroke="black" points="180.23,-407.49 176.38,-397.62 173.23,-407.74 180.23,-407.49"/>
</g>
<!-- [root] root&#45;&gt;[root] provider[&quot;registry.terraform.io/oracle/oci&quot;] (close) -->
<g id="edge10" class="edge">
<title>[root] root&#45;&gt;[root] provider[&quot;registry.terraform.io/oracle/oci&quot;] (close)</title>
<path fill="none" stroke="black" d="M219.65,-510.52C258.68,-500.01 319.73,-483.58 367.79,-470.64"/>
<polygon fill="black" stroke="black" points="368.56,-474.05 377.31,-468.07 366.74,-467.29 368.56,-474.05"/>
</g>
</g>
</svg>
